<svg width="48" height="48" viewBox="0 0 48 48" fill="none" xmlns="http://www.w3.org/2000/svg">
  <rect width="48" height="48" rx="11" fill="#0E1225"/>
  <path
    d="M24 8C28.7 14 32 19.2 32 25.3C32 32.3 28.7 38 24 38C19.3 38 16 32.3 16 25.3C16 19.2 19.3 14 24 8Z"
    fill="url(#cospark-favicon-grad)"
  />
  <path
    d="M24 21.5C26.8 25.2 28.2 28 28.2 31.1C28.2 34.5 26.3 36.8 24 36.8C21.7 36.8 19.8 34.5 19.8 31.1C19.8 28 21.2 25.2 24 21.5Z"
    fill="#0E1225"
    fill-opacity="0.55"
  />
  <defs>
    <linearGradient id="cospark-favicon-grad" x1="16.4" y1="6" x2="31.6" y2="37.4" gradientUnits="userSpaceOnUse">
      <stop offset="0" stop-color="#FFB447"/>
      <stop offset="1" stop-color="#FF6B4A"/>
    </linearGradient>
  </defs>
</svg>
